<?xml version="1.0" encoding="utf-8"?>
<!-- Generator: Adobe Illustrator 16.0.0, SVG Export Plug-In . SVG Version: 6.00 Build 0)  -->
<!DOCTYPE svg PUBLIC "-//W3C//DTD SVG 1.1//EN" "http://www.w3.org/Graphics/SVG/1.1/DTD/svg11.dtd">
<svg version="1.1" id="Layer_1" xmlns="http://www.w3.org/2000/svg" xmlns:xlink="http://www.w3.org/1999/xlink" x="0px" y="0px"
	 width="800px" height="600px" viewBox="0 0 800 600" enable-background="new 0 0 800 600" xml:space="preserve">
<g>
	<path fill="#FFFFFF" stroke="#FFFFFF" stroke-miterlimit="10" d="M280.81,320.758c0.385,1.123,0.577,2.332,0.577,3.625
		c0,2.591-0.437,3.885-1.313,3.885c-0.245,0-0.474-0.214-0.683-0.646c-0.735-1.554-1.664-3.238-2.783-5.05
		c-6.058,54.981-13.374,94.512-21.95,118.595c-0.912,2.502-2.137,3.754-3.677,3.754c-1.472,0-3.011-0.993-4.622-2.978
		c-4.901-3.54-8.297-7.209-10.188-11.006c-2.765-5.44-4.273-13.722-4.517-24.856c-0.104-3.196-0.158-6.647-0.158-10.358
		c0-24.081,1.383-49.069,4.148-74.964c-3.85,10.187-8.122,23.437-12.813,39.749c-5.495,19.072-9.296,34.739-11.395,46.998
		c-2.243,12.858-3.8,20.886-4.674,24.077c-0.701,2.505-1.909,4.793-3.625,6.865c-2.8,3.451-4.726,5.178-5.776,5.178
		c-0.734,0-1.102-0.776-1.102-2.332c0-1.205,0.21-2.933,0.63-5.179c3.606-18.815,7.23-44.602,10.871-77.358
		c3.639-32.754,5.458-56.21,5.458-70.363c0-2.243-0.067-4.1-0.208-5.569c-3.64,2.159-7.999,6.128-13.076,11.912
		c-4.866,5.524-8.962,11.005-12.289,16.442c-1.785,3.02-2.677,7.035-2.677,12.042c0,3.191,0.352,6.775,1.05,10.744
		c0.175,0.863,0.265,1.597,0.265,2.201c0,1.469-0.298,2.201-0.894,2.201c-0.63,0-1.243-0.905-1.838-2.72
		c-4.271-13.034-6.337-21.449-6.197-25.247c0.106-4.487,2.311-9.538,6.618-15.148c3.115-4.055,7.667-8.499,13.653-13.335
		c6.161-4.919,10.083-8.413,11.763-10.484c0.175-1.296,0.35-2.59,0.526-3.885c0.315-1.985,0.874-2.979,1.681-2.979
		c1.259,0,3.238,2.461,5.932,7.381c2.206,3.97,3.311,8.976,3.311,15.018c0,1.466-0.088,4.4-0.264,8.803
		c-0.28,6.56-1.47,19.81-3.572,39.748c-1.995,18.728-3.745,33.615-5.25,44.667c3.045-10.963,7.981-27.446,14.808-49.459
		c6.583-21.316,10.434-33.313,11.555-35.99c1.119-10.185,1.854-16.269,2.205-18.258c0.806-4.487,1.89-6.73,3.256-6.73
		c0.456,0,0.963,0.216,1.522,0.648c3.853,2.933,5.777,5.783,5.777,8.542c0,1.557-0.419,3.455-1.26,5.699l-3.622,9.45l-0.054,0.131
		c-4.796,38.581-7.195,70.82-7.195,96.712c0,3.625,0.036,7.205,0.105,10.743c0.21,8.979,1.087,16.358,2.627,22.143
		c1.54,5.782,3.36,8.629,5.461,8.542c2.45-0.084,4.675-3.538,6.669-10.354c3.466-11.825,7.054-28.27,10.766-49.329
		c4.237-23.907,6.949-44.926,8.139-63.05c-1.646-4.662-2.468-11.18-2.468-19.552c0-6.991,0.577-15.666,1.733-26.024
		c0.594-5.609,1.521-8.414,2.783-8.414c1.155,0,2.556,2.416,4.202,7.248c1.224,3.715,1.836,7.985,1.836,12.821
		c0,3.018-1.014,15.19-3.045,36.509C278.043,313.423,279.129,316.271,280.81,320.758z"/>
	<path fill="#FFFFFF" stroke="#FFFFFF" stroke-miterlimit="10" d="M313.893,356.75c-3.222,22.012-5.444,40.482-6.67,55.413
		c0.525-1.208,1.217-3.063,2.074-5.566c0.859-2.502,1.392-3.972,1.603-4.402c0.492-1.553,1.015-2.326,1.576-2.326
		c0.523,0,0.787,0.643,0.787,1.938c0,0.776-0.14,1.681-0.421,2.717c-3.291,12.002-5.477,24.126-6.563,36.383
		c-0.315,3.455-0.787,5.179-1.417,5.179c-0.596,0-1.698-1.381-3.311-4.143c-0.946-1.555-1.487-2.848-1.627-3.886
		c-0.176-0.946-0.176-2.846,0-5.697c1.47-21.921,3.309-40.137,5.515-54.636c-3.046,12.173-7.195,25.636-12.447,40.396
		c-4.586,12.861-7.893,21.061-9.923,24.602c-1.471,2.499-2.592,3.753-3.361,3.753c-0.631,0-1.593-1.254-2.888-3.753
		c-1.856-2.766-2.784-6.562-2.784-11.397c0-0.947,0.035-2.029,0.104-3.232c0.63-12.776,2.905-27.645,6.827-44.605
		c3.921-16.958,8.42-31.267,13.496-42.917c1.646-3.797,3.116-5.654,4.412-5.569c1.26,0.175,3.659,4.275,7.195,12.301
		c0.314,0.69,0.473,1.426,0.473,2.2c0,1.381-0.367,2.072-1.103,2.072c-0.279,0-0.542-0.129-0.787-0.387
		c-2.487-2.592-4.483-2.505-5.987,0.258c-3.292,5.956-6.931,16.443-10.923,31.46c-4.62,17.263-7.406,32.8-8.35,46.606
		c-0.036,0.607-0.053,1.168-0.053,1.688c0,2.154,0.352,3.235,1.051,3.235c1.191,0,2.607-2.028,4.254-6.087
		c3.921-9.407,8.122-21.232,12.604-35.476c4.587-14.755,7.527-25.892,8.822-33.4c0.944-5.522,1.558-9.407,1.837-11.65
		c0.457-3.886,0.945-5.826,1.471-5.826s1.751,1.77,3.678,5.307c0.803,1.469,1.242,2.808,1.312,4.014
		C314.436,352.353,314.279,354.162,313.893,356.75z"/>
	<path fill="#FFFFFF" stroke="#FFFFFF" stroke-miterlimit="10" d="M335.633,413.589c0.105,10.356-2.224,17.436-6.984,21.233
		c-0.596,3.625-1.154,6.129-1.68,7.509c-0.806,2.07-1.997,3.279-3.571,3.625c-1.014,0.172-2.102,0.043-3.254-0.391
		c-2.066-0.774-4.605-1.725-7.616-2.845c-0.841-0.349-1.348-1.6-1.523-3.757c0.142-2.329,1.121-3.709,2.942-4.142
		c2.485-0.435,6.162-1.509,11.027-3.24c1.822-1.033,3.117-3.58,3.886-7.637c0.456-2.071,0.683-4.619,0.683-7.636
		c0-5.439-1.103-15.021-3.309-28.742c-2.172-13.382-3.186-22.313-3.046-26.803c0.281-10.789,4.323-18.3,12.13-22.527
		c0.771-0.432,1.156,0.259,1.156,2.071c0,1.035-0.28,1.855-0.84,2.459c-3.78,4.056-5.671,9.064-5.671,15.021
		c0,2.329,0.175,5.241,0.526,8.739c0.348,3.494,1.399,11.889,3.15,25.182C334.933,401.289,335.6,408.582,335.633,413.589z
		 M344.035,339.274c0,3.884-0.419,10.1-1.258,18.641c-0.316,2.937-0.666,4.836-1.051,5.7c-0.176,0.429-0.771,1.077-1.785,1.939
		c-1.297,1.209-2.101,1.813-2.417,1.813c-0.524,0-0.786-0.865-0.786-2.589c0-0.948,0.069-2.204,0.209-3.758
		c0.84-8.542,1.164-14.478,0.972-17.801c-0.192-3.322,0.203-5.415,1.182-6.278c1.716-2.159,2.819-3.237,3.308-3.237
		C343.493,333.705,344.035,335.562,344.035,339.274z"/>
	<path fill="#FFFFFF" stroke="#FFFFFF" stroke-miterlimit="10" d="M387.306,242.044c0.458,0.86,0.684,1.813,0.684,2.846
		c0,1.554-0.402,2.332-1.208,2.332c-0.35,0-0.717-0.26-1.103-0.777c-1.611-1.985-2.817-2.978-3.623-2.978
		c-2.135,0-4.517,5.265-7.143,15.795c-9.241,37.116-16.086,85.707-20.532,145.784c5.707-27.021,12.236-48.595,19.587-64.736
		c1.577-3.452,2.731-5.181,3.466-5.181c0.21,0,1.085,1.213,2.626,3.627c1.855,1.899,2.907,3.108,3.15,3.625
		c0.911,1.985,1.366,5.439,1.366,10.359c0,1.38-0.035,2.891-0.105,4.529c-0.595,15.364-2.38,33.964-5.355,55.8
		c1.086-3.624,2.8-8.933,5.146-15.922c0.561-1.47,1.032-2.202,1.417-2.202c0.386,0,0.579,0.563,0.579,1.685
		c0,1.291-0.23,2.762-0.684,4.399c-2.032,7.252-4.726,17.868-8.088,31.85c-0.278,1.382-0.96,5.005-2.046,10.873
		c-0.456,2.765-1.086,4.146-1.892,4.146c-0.909,0-2.222-1.511-3.938-4.534c-0.699-1.209-0.823-3.104-0.368-5.694
		c6.022-37.287,9.208-65.123,9.557-83.507c0.106-5.265-0.192-7.896-0.892-7.896c-0.455,0-1.419,1.465-2.889,4.399
		c-2.696,5.352-6.004,14.845-9.925,28.483c-5.183,17.954-9.189,36.297-12.027,55.025c-0.769,5.352-1.488,8.025-2.153,8.025
		c-0.593,0-1.767-1.769-3.519-5.308c-0.875-1.81-1.172-4.832-0.894-9.061c4.063-54.811,9.35-101.636,15.86-140.475
		c4.833-28.915,9.191-47.817,13.078-56.708c0.98-2.242,1.941-3.366,2.888-3.366c0.98,0,2.225,1.38,3.729,4.143
		C383.806,234.965,385.557,238.503,387.306,242.044z"/>
	<path fill="#FFFFFF" stroke="#FFFFFF" stroke-miterlimit="10" d="M440.871,387.046c-0.104,1.553-0.279,5.177-0.525,10.874
		c-0.139,3.108-0.261,4.924-0.368,5.439c-0.243,1.123-0.872,1.686-1.891,1.686c-4.97,0-11.603-2.462-19.899-7.381
		c-1.123-0.691-1.979-1.035-2.577-1.035c-0.943,0-1.695,1.291-2.257,3.882c-0.209,0.864-0.454,1.296-0.733,1.296
		c-0.492,0-0.737-0.735-0.737-2.199c0-0.347,0.019-0.651,0.053-0.906c0.142-1.642,0.455-5.181,0.945-10.618
		c0.385-3.883,0.807-5.826,1.261-5.826c0.315,0,0.734,0.172,1.261,0.517c8.229,6.04,14.635,9.151,19.221,9.323
		c1.68,0,2.853-0.562,3.517-1.684c0.385-0.604,0.79-2.071,1.21-4.401c0.244-1.297,0.576-1.77,0.996-1.426
		C440.768,384.846,440.942,385.664,440.871,387.046z"/>
	<path fill="#FFFFFF" stroke="#FFFFFF" stroke-miterlimit="10" d="M549.366,275.185c0.49,1.383,0.734,2.893,0.734,4.534
		c0,3.022-0.927,7.206-2.785,12.558c-1.398,3.625-2.798,7.292-4.198,11.005c-2.836,19.763-5.444,41.04-7.827,63.827
		c-2.832,26.93-4.306,46.652-4.41,59.169c0.595,3.968,0.893,6.643,0.893,8.025c0,3.454-1.295,7.336-3.886,11.653
		c-0.488,0.774-0.962,1.163-1.416,1.163c-0.597,0-1.158-0.773-1.681-2.328c-0.354-0.95-0.684-1.898-0.998-2.849
		c-0.526-0.864-0.526-4.575,0-11.136c-3.08-20.023-7.408-42.896-12.971-68.619c-4.799-22.095-8.229-36.337-10.293-42.724
		c-1.437,11.396-4.043,28.958-7.824,52.695c-1.994,12.687-4.009,25.333-6.039,37.933c0.944-0.862,2.414,3.54,4.411,13.207
		c0.209,0.951,0.314,1.728,0.314,2.33c0,1.468-0.509,2.243-1.523,2.33c0.666-0.087-0.175-0.128-2.522-0.128
		c-2.168,0-4.007,1.855-5.512,5.564l-1.313,7.379c-0.629,3.627-1.521,5.44-2.677,5.44c-0.457,0-0.981-0.303-1.574-0.909
		c-3.572-3.537-5.341-7.031-5.306-10.483c0.07-4.488,2.838-10.788,8.299-18.904c2.87-12.688,6.527-33.1,10.973-61.237
		c3.572-22.442,5.898-38.193,6.985-47.258c-2.45-9.667-4.953-16.27-7.51-19.81c-0.981-1.291-1.838-1.938-2.572-1.938
		c-1.507,0-3.52,2.329-6.039,6.991c-0.665,1.206-1.313,1.813-1.942,1.813c-0.806,0-1.21-0.906-1.21-2.72
		c0-1.553,0.367-3.193,1.103-4.919c3.854-9.151,6.231-14.586,7.142-16.312c1.961-3.886,3.623-5.611,4.989-5.178
		c2.137,0.604,4.938,6.859,8.402,18.772c0.736-4.49,0.946-7.941,0.63-10.359c-0.035-0.432-0.052-0.819-0.052-1.165
		c0-1.121,0.191-1.683,0.578-1.683c0.664,0,1.679,1.424,3.045,4.271c0.699,1.47,1.049,3.498,1.049,6.087
		c0,2.157-0.227,4.918-0.683,8.288c-0.385,2.501-0.753,5.049-1.103,7.639c4.762,16.396,9.682,35.989,14.758,58.777
		c4.657,21.057,7.789,37.242,9.399,48.548c1.225-19.59,4.2-51.956,8.928-97.101c-0.877-1.378-1.978-3.496-3.309-6.342
		c-0.596-1.555-0.893-2.85-0.893-3.883c0-1.471,0.604-2.096,1.812-1.88c1.207,0.215,4.191-7.141,8.952-22.072
		c1.087-3.282,1.998-4.921,2.733-4.921C546.445,268.325,547.756,270.612,549.366,275.185z"/>
	<path fill="#FFFFFF" stroke="#FFFFFF" stroke-miterlimit="10" d="M593.847,387.046c-0.105,1.553-0.283,5.177-0.527,10.874
		c-0.141,3.108-0.261,4.924-0.366,5.439c-0.244,1.123-0.876,1.686-1.894,1.686c-4.97,0-11.604-2.462-19.899-7.381
		c-1.122-0.691-1.979-1.035-2.576-1.035c-0.943,0-1.696,1.291-2.256,3.882c-0.21,0.864-0.455,1.296-0.737,1.296
		c-0.49,0-0.735-0.735-0.735-2.199c0-0.347,0.021-0.651,0.053-0.906c0.14-1.642,0.455-5.181,0.946-10.618
		c0.385-3.883,0.803-5.826,1.262-5.826c0.315,0,0.734,0.172,1.262,0.517c8.224,6.04,14.632,9.151,19.217,9.323
		c1.682,0,2.854-0.562,3.519-1.684c0.384-0.604,0.787-2.071,1.207-4.401c0.248-1.297,0.58-1.77,0.999-1.426
		C593.741,384.846,593.914,385.664,593.847,387.046z"/>
	<path fill="#FFFFFF" stroke="#FFFFFF" stroke-miterlimit="10" d="M691.363,304.056c-1.088,20.025-3.713,41.649-7.878,64.864
		c-3.782,21.146-7.978,39.252-12.603,54.313c-4.62,15.06-8.332,22.636-11.134,22.723c-3.464,0-8.401-5.311-14.809-15.927
		c-0.488-0.862-0.734-1.855-0.734-2.978c0-2.764,0.646-4.141,1.944-4.141c0.351,0,0.699,0.217,1.048,0.647
		c2.626,4.055,5.532,6.299,8.716,6.73c4.379,0.518,9.981-15.319,16.806-47.516c6.76-31.761,10.677-60.117,11.764-85.061
		c0.352-8.025-1.397-13.982-5.251-17.867c-0.947-0.863-1.73-1.207-2.362-1.035c-6.759,2.331-13.287,8.374-19.589,18.127
		c-3.29,19.332-6.615,42.204-9.976,68.616c-3.679,28.828-6.338,53.771-7.985,74.833c-0.35,4.316-1.081,6.475-2.203,6.475
		c-0.42,0-0.91-0.301-1.474-0.906c-1.817-2.331-3.009-4.231-3.569-5.697c-0.77-1.984-1.156-4.703-1.156-8.157
		c0-7.249,0.473-15.927,1.418-26.021c0.246-2.506,0.615-3.755,1.104-3.755c0.457,0,1.662,1.987,3.626,5.955
		c4.761-39.964,9.275-74.188,13.548-102.669c-7.808,12.084-13.829,23.735-18.066,34.957c-0.979,2.674-1.472,5.783-1.472,9.321
		c0,3.193,0.423,6.817,1.261,10.875c0.842,4.059,1.264,6.387,1.264,6.992c0,1.466-0.403,2.199-1.212,2.199
		c-0.696,0-1.223-0.472-1.574-1.424c-4.374-12.687-6.563-21.448-6.563-26.283c0-5.091,1.399-10.745,4.202-16.959
		c5.912-13.205,14.492-27.793,25.73-43.761c1.855-10.702,3.2-16.054,4.044-16.054c0.629,0,1.924,2.331,3.886,6.992
		c1.927-2.158,3.852-4.317,5.776-6.473c1.612-1.727,2.923-2.59,3.939-2.59c1.68,0,3.939,2.333,6.774,6.992
		c0.14-0.347,0.366-0.519,0.682-0.519c1.959,0,4.955,4.49,8.979,13.465c2.172,4.919,3.259,10.229,3.259,15.925
		C691.523,300.647,691.469,302.244,691.363,304.056z"/>
	<path fill="#FFFFFF" stroke="#FFFFFF" stroke-miterlimit="10" d="M726.549,356.75c-3.221,22.012-5.444,40.482-6.668,55.413
		c0.521-1.208,1.215-3.063,2.073-5.566c0.856-2.502,1.393-3.972,1.599-4.402c0.489-1.553,1.018-2.326,1.576-2.326
		c0.525,0,0.787,0.643,0.787,1.938c0,0.776-0.138,1.681-0.419,2.717c-3.291,12.002-5.478,24.126-6.563,36.383
		c-0.318,3.455-0.789,5.179-1.418,5.179c-0.596,0-1.7-1.381-3.311-4.143c-0.946-1.555-1.488-2.848-1.626-3.886
		c-0.178-0.946-0.178-2.846,0-5.697c1.47-21.921,3.307-40.137,5.514-54.636c-3.048,12.173-7.194,25.636-12.446,40.396
		c-4.588,12.861-7.896,21.061-9.927,24.602c-1.47,2.499-2.587,3.753-3.36,3.753c-0.63,0-1.595-1.254-2.886-3.753
		c-1.859-2.766-2.786-6.562-2.786-11.397c0-0.947,0.034-2.029,0.104-3.232c0.631-12.776,2.908-27.645,6.829-44.605
		c3.922-16.958,8.42-31.267,13.495-42.917c1.645-3.797,3.118-5.654,4.411-5.569c1.261,0.175,3.661,4.275,7.194,12.301
		c0.317,0.69,0.474,1.426,0.474,2.2c0,1.381-0.365,2.072-1.103,2.072c-0.278,0-0.544-0.129-0.788-0.387
		c-2.486-2.592-4.482-2.505-5.987,0.258c-3.293,5.956-6.932,16.443-10.923,31.46c-4.622,17.263-7.404,32.8-8.347,46.606
		c-0.039,0.607-0.053,1.168-0.053,1.688c0,2.154,0.347,3.235,1.048,3.235c1.191,0,2.609-2.028,4.255-6.087
		c3.921-9.407,8.119-21.232,12.601-35.476c4.589-14.755,7.528-25.892,8.823-33.4c0.946-5.522,1.561-9.407,1.839-11.65
		c0.456-3.886,0.946-5.826,1.472-5.826c0.524,0,1.747,1.77,3.675,5.307c0.806,1.469,1.243,2.808,1.313,4.014
		C727.092,352.353,726.935,354.162,726.549,356.75z"/>
	<path fill="#FFFFFF" stroke="#FFFFFF" stroke-miterlimit="10" d="M748.288,413.589c0.104,10.356-2.221,17.436-6.981,21.233
		c-0.598,3.625-1.156,6.129-1.683,7.509c-0.803,2.07-1.996,3.279-3.571,3.625c-1.016,0.172-2.102,0.043-3.256-0.391
		c-2.065-0.774-4.604-1.725-7.613-2.845c-0.843-0.349-1.346-1.6-1.523-3.757c0.139-2.329,1.121-3.709,2.941-4.142
		c2.483-0.435,6.161-1.509,11.026-3.24c1.82-1.033,3.116-3.58,3.888-7.637c0.457-2.071,0.682-4.619,0.682-7.636
		c0-5.439-1.101-15.021-3.311-28.742c-2.169-13.382-3.186-22.313-3.042-26.803c0.277-10.789,4.323-18.3,12.128-22.527
		c0.769-0.432,1.156,0.259,1.156,2.071c0,1.035-0.28,1.855-0.841,2.459c-3.777,4.056-5.669,9.064-5.669,15.021
		c0,2.329,0.172,5.241,0.525,8.739c0.349,3.494,1.398,11.889,3.149,25.182C747.588,401.289,748.255,408.582,748.288,413.589z
		 M756.691,339.274c0,3.884-0.422,10.1-1.26,18.641c-0.317,2.937-0.667,4.836-1.053,5.7c-0.173,0.429-0.769,1.077-1.785,1.939
		c-1.294,1.209-2.1,1.813-2.414,1.813c-0.525,0-0.787-0.865-0.787-2.589c0-0.948,0.068-2.204,0.209-3.758
		c0.84-8.542,1.164-14.478,0.972-17.801c-0.192-3.322,0.202-5.415,1.181-6.278c1.719-2.159,2.816-3.237,3.308-3.237
		C756.146,333.705,756.691,335.562,756.691,339.274z"/>
	<path fill="#FFFFFF" stroke="#FFFFFF" stroke-miterlimit="10" d="M799.965,242.044c0.454,0.86,0.681,1.813,0.681,2.846
		c0,1.554-0.402,2.332-1.207,2.332c-0.352,0-0.721-0.26-1.103-0.777c-1.613-1.985-2.819-2.978-3.625-2.978
		c-2.135,0-4.514,5.265-7.142,15.795c-9.243,37.116-16.087,85.707-20.531,145.784c5.706-27.021,12.234-48.595,19.585-64.736
		c1.576-3.452,2.731-5.181,3.467-5.181c0.213,0,1.086,1.213,2.626,3.627c1.856,1.899,2.907,3.108,3.151,3.625
		c0.909,1.985,1.365,5.439,1.365,10.359c0,1.38-0.034,2.891-0.106,4.529c-0.596,15.364-2.38,33.964-5.355,55.8
		c1.087-3.624,2.802-8.933,5.146-15.922c0.562-1.47,1.035-2.202,1.419-2.202c0.382,0,0.576,0.563,0.576,1.685
		c0,1.291-0.229,2.762-0.681,4.399c-2.033,7.252-4.727,17.868-8.091,31.85c-0.278,1.382-0.958,5.005-2.046,10.873
		c-0.458,2.765-1.088,4.146-1.891,4.146c-0.911,0-2.224-1.511-3.939-4.534c-0.699-1.209-0.822-3.104-0.366-5.694
		c6.021-37.287,9.204-65.123,9.557-83.507c0.107-5.265-0.191-7.896-0.891-7.896c-0.455,0-1.418,1.465-2.89,4.399
		c-2.697,5.352-6.007,14.845-9.926,28.483c-5.182,17.954-9.189,36.297-12.025,55.025c-0.771,5.352-1.488,8.025-2.155,8.025
		c-0.593,0-1.77-1.769-3.52-5.308c-0.872-1.81-1.171-4.832-0.888-9.061c4.061-54.811,9.347-101.636,15.858-140.475
		c4.829-28.915,9.187-47.817,13.075-56.708c0.983-2.242,1.943-3.366,2.888-3.366c0.981,0,2.225,1.38,3.729,4.143
		C796.46,234.965,798.212,238.503,799.965,242.044z"/>
</g>
<g>
	<path fill="#FFFFFF" stroke="#FFFFFF" d="M251.237,474.52c0.109,0.105,0.164,0.213,0.164,0.318c0,0.319-0.212,0.479-0.635,0.479
		c-0.109,0-0.27-0.022-0.481-0.068c-0.211-0.045-0.372-0.068-0.48-0.068c-0.615,0-1.236,0.668-1.863,2.005
		c-2.88,6.073-4.825,13.148-5.834,21.226c0.205-0.652,0.43-1.176,0.675-1.571c0.218-0.35,0.437-0.698,0.655-1.048
		c0.177-0.303,0.369-0.455,0.574-0.455c0.231,0,0.348,0.174,0.348,0.523c0,0.197-0.055,0.425-0.164,0.684
		c-0.888,2.171-1.502,4.335-1.843,6.491c-0.123,0.835-0.41,1.252-0.86,1.252c-0.478,0-1.167-0.417-2.068-1.252
		c-0.573-0.531-0.859-0.889-0.859-1.071c0-0.06,0.031-0.197,0.092-0.41c0.061-0.211,0.106-0.433,0.132-0.66
		c0.396-3.295,1.208-7.478,2.437-12.549c-2.975,6.043-5.759,10.704-8.352,13.984c-0.792,1.002-1.624,1.503-2.498,1.503
		c-0.887,0-1.63-0.456-2.231-1.366c-1.419-1.245-2.258-2.064-2.518-2.46c-0.518-0.789-0.778-1.967-0.778-3.53
		c0-0.349,0.007-0.729,0.021-1.139c0.109-2.247,0.688-5.216,1.74-8.905c1.037-3.629,2.231-6.932,3.582-9.906
		c-3.779,1.381-6.448,2.687-8.003,3.916c-0.737,0.593-1.105,1.2-1.105,1.823c0-0.017,0.191,0.796,0.573,2.437
		c0.014,0.075,0.02,0.151,0.02,0.228c0,0.272-0.115,0.41-0.347,0.41c-0.396,0-0.737-0.273-1.023-0.82
		c-1.16-2.201-1.74-3.766-1.74-4.691c0-1.261,0.778-2.156,2.333-2.688c2.661-0.789,6.012-1.875,10.051-3.257
		c0.655-1.139,1.249-1.708,1.781-1.708c0.601,0,1.46,0.6,2.579,1.799c0.164,0.167,0.246,0.318,0.246,0.456
		c0,0.318-0.641,0.629-1.924,0.933c-1.651,3.008-3.084,6.864-4.298,11.57c-1.064,4.115-1.645,7.479-1.74,10.09
		c-0.041,1.336,0.205,2.399,0.737,3.188c0.478,0.729,1.085,1.094,1.822,1.094c0.709,0,1.337-0.357,1.883-1.071
		c2.416-3.158,4.743-6.863,6.98-11.114c1.556-2.977,3.535-7.189,5.937-12.64c0.56-1.261,1.173-2.438,1.842-3.53
		c0.301-0.486,0.655-0.729,1.065-0.729C248.514,472.219,249.641,472.986,251.237,474.52z"/>
	<path fill="#FFFFFF" stroke="#FFFFFF" d="M263.663,467.961c0.178,0.151,0.266,0.318,0.266,0.5c0,0.274-0.158,0.41-0.471,0.41
		c-0.136,0-0.28-0.045-0.43-0.136c-0.627-0.351-1.099-0.525-1.413-0.525c-0.832,0-1.76,0.927-2.783,2.779
		c-3.604,6.529-6.271,15.077-8.004,25.646c2.225-4.754,4.77-8.549,7.635-11.389c0.614-0.607,1.065-0.911,1.351-0.911
		c0.082,0,0.423,0.213,1.023,0.639c0.724,0.334,1.133,0.546,1.228,0.638c0.355,0.349,0.533,0.956,0.533,1.822
		c0,0.242-0.014,0.508-0.042,0.796c-0.231,2.703-0.927,5.976-2.088,9.817c0.423-0.638,1.092-1.572,2.006-2.802
		c0.218-0.259,0.402-0.388,0.553-0.388s0.225,0.099,0.225,0.296c0,0.228-0.088,0.486-0.266,0.774
		c-0.791,1.276-1.842,3.143-3.153,5.604c-0.109,0.243-0.375,0.881-0.797,1.913c-0.178,0.485-0.424,0.729-0.737,0.729
		c-0.355,0-0.867-0.267-1.536-0.798c-0.273-0.212-0.32-0.547-0.143-1.001c2.347-6.561,3.589-11.456,3.726-14.691
		c0.041-0.925-0.075-1.389-0.348-1.389c-0.178,0-0.553,0.259-1.126,0.774c-1.051,0.941-2.341,2.611-3.869,5.011
		c-2.02,3.158-3.583,6.384-4.688,9.679c-0.301,0.941-0.58,1.412-0.839,1.412c-0.233,0-0.689-0.311-1.372-0.934
		c-0.341-0.318-0.457-0.85-0.348-1.594c1.583-9.642,3.644-17.879,6.182-24.711c1.883-5.087,3.583-8.412,5.098-9.976
		c0.382-0.396,0.757-0.592,1.125-0.592c0.383,0,0.867,0.243,1.454,0.729C262.298,466.715,262.98,467.338,263.663,467.961z"/>
	<path fill="#FFFFFF" stroke="#FFFFFF" d="M314.942,473.791c0.096,0.091,0.144,0.196,0.144,0.318c0,0.304-0.218,0.456-0.655,0.456
		c-0.082,0-0.208-0.015-0.378-0.046c-0.171-0.03-0.304-0.045-0.399-0.045c-0.641,0-1.29,0.697-1.945,2.095
		c-2.661,5.739-4.395,12.883-5.2,21.431c0.314-0.652,0.73-1.525,1.249-2.619c0.15-0.334,0.334-0.5,0.552-0.5
		c0.259,0,0.389,0.189,0.389,0.569c0,0.182-0.048,0.395-0.143,0.638c-0.601,1.579-1.154,3.849-1.658,6.81
		c-0.124,0.652-0.389,0.979-0.799,0.979c-0.463,0-1.166-0.395-2.108-1.185c-0.451-0.38-0.71-0.684-0.778-0.911
		c-0.082-0.213-0.075-0.652,0.021-1.321c0.49-3.294,1.126-7.007,1.903-11.137c0.901-4.723,1.556-7.509,1.965-8.358
		c-1.434,1.882-3.193,4.646-5.282,8.29c-2.047,3.584-3.835,6.991-5.363,10.226c0.272,0.941,0.409,1.648,0.409,2.119
		c0,0.591-0.45,1.351-1.35,2.277c-0.465,0.485-0.771,0.729-0.921,0.729s-0.553-0.607-1.208-1.822c-0.287-0.517-0.43-0.926-0.43-1.23
		c0-0.211,0.198-0.729,0.594-1.548c-0.874-3.613-2.463-8.017-4.77-13.209c-1.474,4.129-2.968,7.895-4.483,11.296
		c0.983,1.229,1.474,2.058,1.474,2.482c0,0.334-0.341,0.546-1.023,0.637c-1.433,0.184-2.634,1.003-3.603,2.461
		c-0.083,0.471-0.286,0.705-0.614,0.705c-0.463,0-1.18-0.462-2.149-1.389c-0.3-0.289-0.45-0.523-0.45-0.705
		c0-0.168,0.122-0.373,0.368-0.616c0.915-0.88,1.958-1.73,3.133-2.55c2.538-4.692,4.606-9.627,6.202-14.804
		c-1.666-4.069-3.732-6.909-6.202-8.519c-0.41-0.273-0.799-0.41-1.167-0.41c-0.519,0-1.064,0.296-1.638,0.889
		c-0.532,0.638-1.065,1.283-1.597,1.936c-0.3,0.38-0.607,0.569-0.921,0.569c-0.246,0-0.368-0.137-0.368-0.409
		c0-0.137,0.041-0.297,0.123-0.479c1.843-4.115,3.603-6.135,5.282-6.059c1.992,0.076,4.578,2.824,7.758,8.245
		c0.779-1.974,1.167-3.758,1.167-5.353c0-0.82,0.109-1.229,0.327-1.229c0.205,0,0.683,0.325,1.434,0.979
		c0.218,0.196,0.32,0.606,0.307,1.229c-0.026,0.79-0.662,3.091-1.904,6.901c2.402,5.192,4.224,9.931,5.466,14.212
		c4.818-8.897,9.151-15.844,12.999-20.839c0.478-1.216,1.064-2.415,1.761-3.599c0.3-0.517,0.662-0.774,1.084-0.774
		C312.186,471.604,313.318,472.333,314.942,473.791z"/>
	<path fill="#FFFFFF" stroke="#FFFFFF" d="M325.71,488.139c-1.256,3.871-2.123,7.121-2.601,9.748
		c0.205-0.213,0.475-0.539,0.809-0.979c0.334-0.439,0.542-0.698,0.625-0.774c0.191-0.273,0.395-0.41,0.614-0.41
		c0.205,0,0.308,0.114,0.308,0.342c0,0.137-0.055,0.296-0.164,0.479c-1.283,2.11-2.136,4.244-2.559,6.399
		c-0.123,0.607-0.307,0.911-0.553,0.911c-0.231,0-0.661-0.242-1.289-0.729c-0.369-0.273-0.58-0.502-0.635-0.684
		c-0.068-0.167-0.068-0.5,0-1.002c0.573-3.856,1.29-7.06,2.149-9.611c-1.187,2.141-2.805,4.511-4.852,7.106
		c-1.788,2.262-3.077,3.705-3.869,4.327c-0.573,0.44-1.01,0.66-1.31,0.66c-0.246,0-0.621-0.22-1.126-0.66
		c-0.723-0.486-1.085-1.154-1.085-2.004c0-0.167,0.014-0.357,0.042-0.57c0.246-2.246,1.132-4.861,2.661-7.846
		c1.528-2.983,3.282-5.5,5.261-7.549c0.641-0.669,1.214-0.996,1.719-0.979c0.492,0.029,1.427,0.751,2.805,2.163
		c0.123,0.121,0.185,0.25,0.185,0.387c0,0.243-0.144,0.365-0.43,0.365c-0.109,0-0.211-0.023-0.307-0.069
		c-0.969-0.454-1.747-0.439-2.333,0.046c-1.283,1.048-2.702,2.893-4.258,5.535c-1.802,3.035-2.887,5.769-3.254,8.198
		c-0.014,0.106-0.021,0.205-0.021,0.296c0,0.38,0.137,0.569,0.41,0.569c0.464,0,1.017-0.356,1.658-1.07
		c1.529-1.654,3.166-3.735,4.913-6.239c1.788-2.597,2.935-4.556,3.439-5.877c0.369-0.973,0.607-1.654,0.717-2.05
		c0.178-0.684,0.368-1.025,0.573-1.025c0.205,0,0.683,0.313,1.433,0.935c0.313,0.258,0.484,0.493,0.512,0.706
		C325.921,487.364,325.86,487.683,325.71,488.139z"/>
	<path fill="#FFFFFF" stroke="#FFFFFF" d="M343.294,495.199c-0.819,1.382-1.883,3.386-3.193,6.012
		c-0.246,0.684-0.485,1.367-0.717,2.051c-0.191,0.47-0.443,0.706-0.757,0.706c-0.246,0-0.607-0.114-1.085-0.342
		c-0.532-0.243-0.798-0.485-0.798-0.729c0-0.107,0.089-0.342,0.266-0.707c0.887-2.003,1.679-4.501,2.375-7.492
		c0.751-3.143,1.071-5.542,0.962-7.197c-0.027-0.667-0.164-1.002-0.409-1.002c-0.178,0-0.443,0.189-0.799,0.569
		c-3.439,3.735-6.414,8.73-8.925,14.986c-0.314,0.773-0.682,1.161-1.105,1.161c-0.3,0-0.798-0.189-1.494-0.569
		c-0.273-0.137-0.417-0.266-0.431-0.387c0-0.061,0.076-0.273,0.225-0.638c0.792-1.929,1.576-4.373,2.354-7.334
		c0.832-3.203,1.303-5.702,1.413-7.492c0.027-0.547,0.014-0.821-0.041-0.821c-0.014,0-0.205,0.205-0.573,0.616
		c-0.369,0.409-0.881,0.941-1.536,1.594c-0.123,0.137-0.259,0.205-0.41,0.205c-0.19,0-0.287-0.084-0.287-0.251
		c0-0.121,0.068-0.258,0.205-0.41c0.587-0.835,1.358-1.874,2.314-3.119c0.204-0.258,0.415-0.389,0.634-0.389
		c0.327,0,0.614,0.267,0.859,0.798c1.105,0.365,1.624,0.927,1.556,1.687c-0.15,1.67-0.921,4.684-2.313,9.041
		c0.914-1.959,2.245-4.149,3.991-6.571c1.748-2.421,3.043-3.853,3.89-4.293c0.423-0.212,0.723-0.319,0.901-0.319
		c0.177,0,0.463,0.167,0.859,0.502c1.133,0.439,1.692,1.168,1.678,2.186c0,1.063-0.232,2.771-0.696,5.125
		c-0.368,1.943-0.709,3.454-1.023,4.532c0.396-0.562,0.901-1.29,1.515-2.187c0.109-0.151,0.218-0.227,0.327-0.227
		c0.205,0,0.307,0.144,0.307,0.432C343.335,495.018,343.322,495.108,343.294,495.199z"/>
	<path fill="#FFFFFF" stroke="#FFFFFF" d="M358.504,488.891c-0.027,1.352-0.321,3.143-0.88,5.375
		c-0.887,3.521-2.143,6.255-3.767,8.199c-0.86,1.032-1.815,1.549-2.866,1.549c-0.41,0-0.935-0.099-1.576-0.297
		c-1.284-0.091-2.328-0.539-3.132-1.343c-0.874-0.881-1.283-2.012-1.228-3.395c0.054-1.608,0.552-3.856,1.494-6.741
		c1.037-3.144,2.115-5.404,3.234-6.787c0.532-0.667,0.969-1.002,1.311-1.002c0.464,0,1.214,0.531,2.252,1.595
		c0.286-0.151,0.874-0.433,1.761-0.844c0.45-0.167,0.791-0.249,1.023-0.249c0.532,0,1.126,0.553,1.781,1.661
		C358.334,487.296,358.531,488.056,358.504,488.891z M356.149,489.551c0.096-1.018,0.144-1.662,0.144-1.936
		c0-0.638-0.178-0.957-0.533-0.957c-0.137,0-0.313,0.03-0.532,0.092l-3.173,1.435c-0.368,0.167-0.58,0.251-0.635,0.251
		c-0.108,0-0.218-0.145-0.327-0.434c-0.792,1.078-1.529,2.634-2.21,4.669c-0.533,1.595-0.901,3.022-1.105,4.282
		c-0.15,0.851-0.226,1.624-0.226,2.322c0,2.339,0.648,3.477,1.945,3.417c0.519-0.015,1.079-0.243,1.679-0.684
		c1.146-0.865,2.218-2.597,3.214-5.192C355.345,494.372,355.932,491.95,356.149,489.551z"/>
	<path fill="#FFFFFF" stroke="#FFFFFF" d="M374.226,488.139c-1.255,3.871-2.122,7.121-2.599,9.748
		c0.205-0.213,0.473-0.539,0.808-0.979c0.335-0.439,0.543-0.698,0.624-0.774c0.191-0.273,0.396-0.41,0.615-0.41
		c0.204,0,0.307,0.114,0.307,0.342c0,0.137-0.055,0.296-0.164,0.479c-1.283,2.11-2.135,4.244-2.559,6.399
		c-0.122,0.607-0.306,0.911-0.552,0.911c-0.232,0-0.663-0.242-1.29-0.729c-0.368-0.273-0.58-0.502-0.635-0.684
		c-0.068-0.167-0.068-0.5,0-1.002c0.574-3.856,1.29-7.06,2.149-9.611c-1.187,2.141-2.804,4.511-4.852,7.106
		c-1.787,2.262-3.077,3.705-3.869,4.327c-0.573,0.44-1.01,0.66-1.31,0.66c-0.246,0-0.621-0.22-1.126-0.66
		c-0.723-0.486-1.084-1.154-1.084-2.004c0-0.167,0.014-0.357,0.041-0.57c0.246-2.246,1.133-4.861,2.662-7.846
		c1.529-2.983,3.282-5.5,5.261-7.549c0.642-0.669,1.215-0.996,1.72-0.979c0.491,0.029,1.426,0.751,2.805,2.163
		c0.123,0.121,0.184,0.25,0.184,0.387c0,0.243-0.143,0.365-0.43,0.365c-0.109,0-0.211-0.023-0.307-0.069
		c-0.969-0.454-1.747-0.439-2.334,0.046c-1.283,1.048-2.701,2.893-4.258,5.535c-1.802,3.035-2.887,5.769-3.255,8.198
		c-0.013,0.106-0.021,0.205-0.021,0.296c0,0.38,0.137,0.569,0.41,0.569c0.464,0,1.016-0.356,1.658-1.07
		c1.528-1.654,3.167-3.735,4.913-6.239c1.788-2.597,2.934-4.556,3.439-5.877c0.369-0.973,0.607-1.654,0.717-2.05
		c0.177-0.684,0.368-1.025,0.572-1.025c0.205,0,0.683,0.313,1.433,0.935c0.314,0.258,0.485,0.493,0.512,0.706
		C374.438,487.364,374.375,487.683,374.226,488.139z"/>
	<path fill="#FFFFFF" stroke="#FFFFFF" d="M385.976,470.853c0.095,0.167-0.041,0.646-0.409,1.436
		c-1.161,2.429-2.027,4.745-2.6,6.946c0.095,0.075,0.082,0.234-0.041,0.478c-0.464,0.577-1.024,0.79-1.679,0.638
		c-0.218-0.015-0.327-0.205-0.327-0.568c0-0.456,0.204-1.474,0.614-3.053c0.601-2.354,1.161-3.895,1.679-4.624
		c0.259-0.363,0.566-0.614,0.921-0.751C385.293,470.898,385.908,470.73,385.976,470.853z"/>
	<path fill="#FFFFFF" stroke="#FFFFFF" d="M391.093,498.138c0.042,1.821-0.867,3.066-2.723,3.734
		c-0.231,0.638-0.45,1.078-0.655,1.321c-0.314,0.364-0.777,0.576-1.392,0.638c-0.396,0.03-0.819,0.008-1.27-0.068
		c-0.805-0.137-1.794-0.304-2.968-0.501c-0.328-0.061-0.525-0.281-0.594-0.66c0.054-0.411,0.437-0.653,1.146-0.729
		c0.969-0.076,2.402-0.266,4.299-0.568c0.709-0.184,1.214-0.631,1.514-1.345c0.178-0.364,0.267-0.813,0.267-1.344
		c0-0.957-0.43-2.642-1.29-5.056c-0.847-2.354-1.243-3.925-1.187-4.714c0.108-1.898,1.685-3.22,4.729-3.964
		c0.3-0.076,0.45,0.046,0.45,0.364c0,0.183-0.109,0.327-0.328,0.434c-1.474,0.713-2.21,1.594-2.21,2.642
		c0,0.41,0.068,0.923,0.205,1.537c0.136,0.615,0.545,2.092,1.228,4.43C390.821,495.974,391.081,497.257,391.093,498.138z
		 M394.369,485.064c0,0.683-0.164,1.776-0.491,3.279c-0.124,0.517-0.26,0.851-0.41,1.002c-0.068,0.076-0.3,0.19-0.696,0.342
		c-0.506,0.213-0.819,0.319-0.941,0.319c-0.206,0-0.308-0.152-0.308-0.456c0-0.167,0.028-0.387,0.082-0.66
		c0.328-1.504,0.454-2.547,0.379-3.132c-0.075-0.584,0.078-0.953,0.46-1.104c0.668-0.379,1.099-0.569,1.29-0.569
		C394.157,484.085,394.369,484.411,394.369,485.064z"/>
	<path fill="#FFFFFF" stroke="#FFFFFF" d="M427.676,479.986c-0.355,1.639-1.28,3.727-2.774,6.263
		c-1.494,2.535-2.795,4.243-3.899,5.124c-0.778,0.622-1.543,0.934-2.293,0.934c-0.438,0-1.487-0.371-3.152-1.116
		c-0.328-0.151-0.491-0.326-0.491-0.523c0-0.304,0.375-0.456,1.126-0.456c1.241,0,2.189-0.28,2.845-0.842
		c1.311-1.108,2.552-2.627,3.726-4.556c1.502-2.444,2.396-4.844,2.682-7.197c0.164-1.29-0.232-2.064-1.188-2.322
		c-0.436-0.106-0.88-0.114-1.33-0.023c-2.115,0.122-4.155,0.638-6.12,1.55c-2.279,9.154-4.375,16.473-6.285,21.955
		c0.108-0.047,0.512-0.305,1.208-0.775c0.396-0.258,0.71-0.371,0.941-0.342c0.396,0.076,0.784,0.518,1.166,1.321
		c0.314,0.653,0.472,1.14,0.472,1.458c0,0.41-0.239,0.592-0.717,0.547c-0.341-0.046-0.907,0.167-1.699,0.638
		c-0.859,0.501-1.596,1.094-2.211,1.776c-0.3,0.333-0.614,0.501-0.941,0.501c-0.45,0-1.003-0.335-1.658-1.002
		c-0.409-0.44-0.587-0.82-0.531-1.14c0.04-0.258,0.259-0.439,0.654-0.547c3.33-8.532,5.807-16.336,7.431-23.412
		c-5.131,2.565-7.697,4.957-7.697,7.175c0,0.319,0.048,0.63,0.144,0.934c0.027,0.121,0.157,0.509,0.389,1.161
		c0.055,0.152,0.082,0.296,0.082,0.433c0,0.426-0.149,0.638-0.45,0.638c-0.423,0-1.234-1.321-2.436-3.963
		c-0.178-0.364-0.267-0.729-0.267-1.093c0-0.896,0.506-1.868,1.515-2.915c0.697-0.714,2.007-1.687,3.931-2.915
		c2.074-1.307,3.924-2.293,5.547-2.962c0.165-0.743,0.246-1.351,0.246-1.821c0-0.607,0.137-0.911,0.41-0.911
		c0.368,0,1.017,0.555,1.944,1.662c2.252-0.729,3.773-1.085,4.564-1.07c1.516,0.03,2.594,0.919,3.235,2.665
		c0.818,0.668,1.364,1.192,1.638,1.571c0.341,0.471,0.512,1.033,0.512,1.686C427.941,478.543,427.853,479.181,427.676,479.986z"/>
	<path fill="#FFFFFF" stroke="#FFFFFF" d="M439.118,486.18c0,1.99-0.238,3.888-0.717,5.694c-0.149,0.547-0.354,0.819-0.614,0.819
		c-0.191,0-0.613-0.304-1.269-0.91c-0.328-0.304-0.41-0.736-0.246-1.298c0.383-1.382,0.573-2.49,0.573-3.326
		c0-0.288-0.055-0.433-0.164-0.433c-0.163,0-0.43,0.273-0.797,0.82c-2.84,4.114-4.962,8.73-6.368,13.848
		c-0.45,1.624-0.831,2.437-1.146,2.437c-0.121,0-0.661-0.267-1.616-0.797c-0.465-0.259-0.621-0.76-0.471-1.503
		c1.078-5.254,2.238-9.688,3.479-13.302c-1.01,1.185-1.651,1.997-1.925,2.438c-0.108,0.182-0.259,0.272-0.449,0.272
		c-0.232,0-0.349-0.113-0.349-0.342c0-0.136,0.055-0.287,0.164-0.454c0.669-0.896,1.563-2.263,2.682-4.1
		c0.342-0.669,0.683-1.002,1.023-1.002c0.245,0,0.744,0.213,1.495,0.638c0.422,0.242,0.491,0.569,0.204,0.979
		c-0.3,0.44-0.866,1.997-1.699,4.67c-0.791,2.596-1.338,4.631-1.638,6.103c1.856-4.6,3.965-8.661,6.326-12.185
		c0.451-0.668,0.812-1.002,1.084-1.002c0.246,0,0.581,0.183,1.003,0.547c0.573,0.076,0.935,0.175,1.086,0.296
		C439.002,485.27,439.118,485.633,439.118,486.18z"/>
	<path fill="#FFFFFF" stroke="#FFFFFF" d="M450.01,496.816c-3.316,4.722-5.651,7.083-7.002,7.083c-0.642,0-1.453-0.493-2.436-1.48
		c-1.023-0.532-1.536-1.245-1.536-2.141c0-0.167,0.014-0.342,0.041-0.524c0.245-2.08,0.744-4.38,1.495-6.9
		c-0.506-0.289-0.759-0.563-0.759-0.82c0-0.212,0.145-0.318,0.431-0.318c0.218,0,0.443,0.068,0.676,0.204
		c1.214-3.036,2.307-5.192,3.274-6.468c0.629-0.851,1.195-1.275,1.699-1.275c0.233,0,0.807,0.221,1.72,0.661
		c-0.068-0.456,0.048-0.722,0.349-0.798c0.013,0,0.333,0,0.962,0c0.587,0,0.881,0.114,0.881,0.342c0,0.046-0.021,0.175-0.063,0.387
		c-0.041,0.213-0.061,0.411-0.061,0.593c0,0.547,0.006,1.223,0.02,2.026c0.015,0.805,0.021,1.345,0.021,1.617
		c0,1.883-0.465,3.196-1.393,3.94c-0.847,0.684-1.801,1.024-2.866,1.024c-0.559,0-1.487-0.167-2.783-0.5
		c-0.232,0.471-0.492,1.389-0.778,2.756c-0.383,1.73-0.56,3.264-0.532,4.6c0.014,0.79,0.238,1.185,0.676,1.185
		c0.164,0,0.375-0.046,0.635-0.137c1.582-0.623,3.786-2.521,6.611-5.693c0.178-0.198,0.354-0.296,0.532-0.296
		c0.26,0,0.39,0.136,0.39,0.41C450.214,496.459,450.146,496.635,450.01,496.816z M447.613,486.75c0-0.592-0.116-0.889-0.348-0.889
		c-0.15,0-0.368,0.122-0.654,0.364c-1.338,1.199-2.513,3.302-3.522,6.31c0.273,0.045,0.752,0.091,1.434,0.136
		c1.105,0.046,1.932-0.235,2.477-0.843c0.409-0.455,0.636-1.207,0.676-2.254C447.635,490.349,447.613,489.407,447.613,486.75z"/>
	<path fill="#FFFFFF" stroke="#FFFFFF" d="M476.457,496.042c-0.889,1.473-2.212,4.069-3.971,7.789
		c-0.164,0.335-0.267,0.509-0.308,0.523c-0.124,0.076-0.409,0.038-0.859-0.114c-0.941-0.318-1.413-0.622-1.413-0.91
		c0-0.167,0.062-0.41,0.185-0.729c1.022-2.657,1.9-5.493,2.631-8.507c0.729-3.014,1.081-5.325,1.053-6.936
		c0-0.53-0.17-0.796-0.511-0.796c-0.232,0-0.506,0.144-0.819,0.433c-1.159,1.047-2.661,3.082-4.504,6.103
		c-2.21,3.645-3.772,7.053-4.688,10.227c-0.095,0.364-0.177,0.568-0.245,0.615c-0.083,0.046-0.28,0.008-0.594-0.114
		c-0.465-0.182-0.908-0.439-1.331-0.774c-0.205-0.167-0.307-0.342-0.307-0.523c0-0.03,0.102-0.327,0.307-0.889
		c1.789-4.98,2.682-9.801,2.682-14.462c0-0.471-0.122-0.707-0.367-0.707c-0.179,0-0.403,0.13-0.677,0.388
		c-1.46,1.366-3.084,3.72-4.871,7.061c-1.72,3.188-3.003,6.18-3.85,8.974c-0.218,0.714-0.442,1.07-0.675,1.07
		c-0.273,0-0.832-0.342-1.68-1.025c-0.218-0.136-0.327-0.28-0.327-0.433c0-0.167,0.151-0.425,0.45-0.773
		c0.561-1.321,1.194-3.599,1.904-6.833c0.806-3.689,1.153-6.37,1.044-8.04c-0.205,0.229-0.553,0.604-1.044,1.128
		s-0.859,0.922-1.105,1.195c-0.178,0.197-0.334,0.297-0.47,0.297c-0.206,0-0.308-0.152-0.308-0.456c0-0.243,0.074-0.456,0.225-0.638
		c0.765-0.88,1.521-1.921,2.272-3.12c0.272-0.426,0.512-0.638,0.716-0.638c0.151,0,0.444,0.243,0.882,0.729
		c0.34,0.138,0.682,0.273,1.023,0.41c0.286,0.151,0.43,0.433,0.43,0.843c0,0.121-0.015,0.25-0.042,0.388
		c-0.341,2.93-0.866,5.663-1.575,8.198c2.414-4.828,4.661-8.26,6.734-10.294c0.287-0.289,0.566-0.433,0.84-0.433
		c0.286,0,0.723,0.204,1.31,0.614c0.559,0.273,0.928,0.517,1.104,0.729c0.206,0.272,0.309,0.697,0.309,1.275
		c0,3.097-0.322,5.854-0.963,8.267c2.661-4.691,5.084-8.176,7.268-10.453c0.286-0.304,0.587-0.456,0.9-0.456
		c0.408,0,0.914,0.304,1.514,0.911c1.064,0.183,1.569,0.903,1.516,2.164c-0.164,3.658-0.874,7.196-2.13,10.613
		c0.683-0.896,1.215-1.67,1.598-2.323c0.177-0.319,0.382-0.479,0.614-0.479c0.204,0,0.306,0.121,0.306,0.364
		C476.64,495.646,476.579,495.829,476.457,496.042z"/>
	<path fill="#FFFFFF" stroke="#FFFFFF" d="M484.358,487.82c-0.328,2.049-1.181,5.458-2.559,10.227
		c0.395-0.396,0.941-1.117,1.637-2.164c0.096-0.137,0.191-0.205,0.287-0.205c0.218,0,0.246,0.212,0.082,0.638
		c-0.067,0.167-0.643,1.206-1.72,3.12c-0.819,1.457-1.419,2.748-1.802,3.871c-0.122,0.35-0.349,0.524-0.675,0.524
		c-0.327,0-0.772-0.175-1.331-0.524c-0.354-0.213-0.533-0.371-0.533-0.479c0-0.091,0.075-0.287,0.227-0.592
		c0.737-1.441,1.556-3.856,2.455-7.242c0.86-3.279,1.346-5.716,1.454-7.312c0.041-0.683-0.021-1.024-0.185-1.024
		c-0.122,0-0.341,0.167-0.655,0.501l-1.268,1.321c-0.451,0.456-0.677,0.479-0.677,0.068c0-0.121,0.063-0.273,0.186-0.455
		c0.641-1.002,1.323-1.952,2.046-2.848c0.219-0.258,0.43-0.387,0.636-0.387c0.218,0,0.538,0.167,0.961,0.501
		c0.628,0.182,0.978,0.296,1.045,0.342c0.313,0.212,0.47,0.606,0.47,1.185C484.439,487.159,484.413,487.471,484.358,487.82z
		 M487.244,477.844c0.219,0.184,0.327,0.389,0.327,0.616c0,0.439-0.586,1.123-1.759,2.05c-0.778,0.592-1.529,0.805-2.253,0.638
		c-0.409-0.091-0.765-0.258-1.064-0.501c-0.096-0.092-0.167-0.187-0.213-0.285c-0.049-0.099-0.06-0.179-0.032-0.239
		c0.041-0.061,0.122-0.076,0.245-0.045c1.256-1.216,2.082-2.088,2.478-2.62c0.313-0.395,0.538-0.592,0.676-0.592
		C485.894,476.865,486.427,477.191,487.244,477.844z"/>
	<path fill="#FFFFFF" stroke="#FFFFFF" d="M502.167,486.796c-1.815,3.749-3.172,8.152-4.072,13.209
		c0.38-0.744,0.845-1.692,1.392-2.847c0.067-0.213,0.177-0.319,0.327-0.319c0.205,0,0.307,0.145,0.307,0.433
		c0,0.092-0.021,0.19-0.061,0.296c-0.874,2.217-1.447,3.926-1.72,5.125c-0.164,0.759-0.383,1.139-0.655,1.139
		s-0.806-0.296-1.597-0.889c-0.424-0.334-0.565-0.926-0.431-1.776c0.575-3.31,1.262-6.187,2.068-8.631
		c-2.634,4.767-4.846,8.281-6.633,10.544c-0.396,0.502-0.826,0.752-1.289,0.752c-0.383,0-0.833-0.175-1.352-0.524
		c-0.941-0.182-1.413-0.729-1.413-1.64c0-0.167,0.014-0.349,0.041-0.547c0.342-4.342,1.052-7.947,2.13-10.817
		c-0.232,0.242-0.58,0.6-1.045,1.07c-0.177,0.166-0.313,0.213-0.408,0.137c-0.109-0.091-0.09-0.266,0.062-0.523
		c0.735-1.199,1.173-1.989,1.309-2.369c0.424-1.184,0.867-2.103,1.331-2.756c0.246-0.334,0.505-0.501,0.778-0.501
		c0.369,0,0.906,0.243,1.617,0.729c0.19,0.137,0.286,0.274,0.286,0.41l-0.45,0.751c-0.683,1.154-1.404,3.189-2.17,6.104
		c-0.832,3.158-1.256,5.731-1.27,7.721c0,0.653,0.123,0.979,0.368,0.979c0.22,0,0.573-0.28,1.064-0.844
		c1.053-1.244,2.573-3.598,4.565-7.059c1.761-3.053,2.825-5.041,3.194-5.968c0.613-1.549,1.111-2.459,1.494-2.733
		c0.246-0.182,0.464-0.272,0.655-0.272c0.19,0,0.56,0.159,1.106,0.478c0.545,0.318,0.816,0.555,0.816,0.707
		c0,0.045-0.047,0.105-0.143,0.182S502.208,486.705,502.167,486.796z"/>
	<path fill="#FFFFFF" stroke="#FFFFFF" d="M528.022,496.042c-0.888,1.473-2.211,4.069-3.971,7.789
		c-0.165,0.335-0.269,0.509-0.308,0.523c-0.123,0.076-0.409,0.038-0.861-0.114c-0.939-0.318-1.411-0.622-1.411-0.91
		c0-0.167,0.062-0.41,0.185-0.729c1.023-2.657,1.901-5.493,2.631-8.507c0.73-3.014,1.081-5.325,1.053-6.936
		c0-0.53-0.17-0.796-0.511-0.796c-0.232,0-0.506,0.144-0.819,0.433c-1.161,1.047-2.661,3.082-4.504,6.103
		c-2.211,3.645-3.772,7.053-4.688,10.227c-0.097,0.364-0.178,0.568-0.245,0.615c-0.082,0.046-0.28,0.008-0.594-0.114
		c-0.465-0.182-0.908-0.439-1.331-0.774c-0.204-0.167-0.307-0.342-0.307-0.523c0-0.03,0.103-0.327,0.307-0.889
		c1.787-4.98,2.683-9.801,2.683-14.462c0-0.471-0.123-0.707-0.368-0.707c-0.179,0-0.402,0.13-0.676,0.388
		c-1.46,1.366-3.085,3.72-4.872,7.061c-1.72,3.188-3.003,6.18-3.85,8.974c-0.218,0.714-0.442,1.07-0.677,1.07
		c-0.271,0-0.83-0.342-1.678-1.025c-0.217-0.136-0.327-0.28-0.327-0.433c0-0.167,0.15-0.425,0.449-0.773
		c0.562-1.321,1.195-3.599,1.905-6.833c0.806-3.689,1.154-6.37,1.044-8.04c-0.205,0.229-0.553,0.604-1.044,1.128
		c-0.49,0.523-0.859,0.922-1.105,1.195c-0.178,0.197-0.334,0.297-0.472,0.297c-0.204,0-0.307-0.152-0.307-0.456
		c0-0.243,0.076-0.456,0.226-0.638c0.765-0.88,1.521-1.921,2.272-3.12c0.273-0.426,0.512-0.638,0.716-0.638
		c0.149,0,0.444,0.243,0.881,0.729c0.341,0.138,0.683,0.273,1.023,0.41c0.287,0.151,0.43,0.433,0.43,0.843
		c0,0.121-0.014,0.25-0.041,0.388c-0.34,2.93-0.867,5.663-1.576,8.198c2.417-4.828,4.659-8.26,6.735-10.294
		c0.286-0.289,0.566-0.433,0.839-0.433c0.287,0,0.725,0.204,1.311,0.614c0.559,0.273,0.928,0.517,1.104,0.729
		c0.205,0.272,0.308,0.697,0.308,1.275c0,3.097-0.321,5.854-0.962,8.267c2.661-4.691,5.082-8.176,7.267-10.453
		c0.287-0.304,0.588-0.456,0.9-0.456c0.411,0,0.916,0.304,1.516,0.911c1.064,0.183,1.57,0.903,1.515,2.164
		c-0.163,3.658-0.874,7.196-2.13,10.613c0.684-0.896,1.216-1.67,1.598-2.323c0.179-0.319,0.382-0.479,0.614-0.479
		c0.205,0,0.307,0.121,0.307,0.364C528.206,495.646,528.146,495.829,528.022,496.042z"/>
	<path fill="#FFFFFF" stroke="#FFFFFF" d="M560.039,475.408c0.013,2.354-0.438,4.994-1.352,7.926
		c-0.245,0.789-0.58,1.184-1.004,1.184c0.029,0-0.348-0.046-1.125-0.137c-0.655-0.091-0.982-0.318-0.982-0.684
		c0-0.167,0.116-0.334,0.348-0.5c0.313-0.593,0.642-1.693,0.982-3.304c0.383-1.821,0.547-3.316,0.491-4.485
		c-0.054-0.881-0.456-1.321-1.207-1.321c-0.424,0-0.888,0.213-1.393,0.638c-1.678,1.396-3.329,3.947-4.954,7.652
		c-1.569,3.583-3.411,8.942-5.526,16.079c-0.314,1.048-0.818,1.685-1.515,1.913c3.602,0,7.416,0.235,11.443,0.706
		c0.613,0.061,1.003,0.022,1.166-0.113c0.068-0.062,0.238-0.418,0.512-1.07c0.164-0.396,0.334-0.593,0.512-0.593
		c0.179,0,0.342,0.167,0.492,0.502c0.586,1.259,0.879,2.147,0.879,2.664c0,0.425-0.266,0.91-0.798,1.457
		c-0.587,0.593-1.03,0.889-1.329,0.889c-0.233,0-0.602-0.083-1.107-0.251c-3.193-0.986-6.714-1.48-10.563-1.48
		c-1.05,0-2.081,0.046-3.091,0.137c-0.682,0.062-1.084,0.145-1.207,0.251l-0.39,0.729c-0.354,0.668-0.778,1.003-1.27,1.003
		c-0.313,0-0.519-0.167-0.615-0.502c-0.395-1.261-0.592-2.064-0.592-2.413c0-1.14,1.48-1.777,4.441-1.914
		c2.307-9.034,4.755-16.193,7.349-21.477c2.212-4.51,4.095-6.879,5.649-7.106c0.438-0.076,1.57,0.373,3.398,1.344
		c0.451-0.029,0.792-0.046,1.024-0.046c0.614,0,0.996,0.152,1.146,0.456C559.963,473.783,560.024,474.405,560.039,475.408z"/>
	<path fill="#FFFFFF" stroke="#FFFFFF" d="M574.224,488.139c-1.254,3.871-2.121,7.121-2.599,9.748
		c0.204-0.213,0.476-0.539,0.81-0.979c0.335-0.439,0.542-0.698,0.623-0.774c0.191-0.273,0.396-0.41,0.614-0.41
		c0.205,0,0.308,0.114,0.308,0.342c0,0.137-0.056,0.296-0.164,0.479c-1.282,2.11-2.135,4.244-2.559,6.399
		c-0.123,0.607-0.308,0.911-0.554,0.911c-0.231,0-0.66-0.242-1.289-0.729c-0.368-0.273-0.58-0.502-0.636-0.684
		c-0.066-0.167-0.066-0.5,0-1.002c0.575-3.856,1.291-7.06,2.15-9.611c-1.187,2.141-2.803,4.511-4.851,7.106
		c-1.789,2.262-3.079,3.705-3.869,4.327c-0.575,0.44-1.01,0.66-1.311,0.66c-0.245,0-0.621-0.22-1.126-0.66
		c-0.724-0.486-1.085-1.154-1.085-2.004c0-0.167,0.014-0.357,0.04-0.57c0.247-2.246,1.133-4.861,2.661-7.846
		c1.53-2.983,3.283-5.5,5.262-7.549c0.642-0.669,1.215-0.996,1.719-0.979c0.493,0.029,1.427,0.751,2.807,2.163
		c0.122,0.121,0.184,0.25,0.184,0.387c0,0.243-0.144,0.365-0.431,0.365c-0.108,0-0.212-0.023-0.308-0.069
		c-0.969-0.454-1.746-0.439-2.332,0.046c-1.284,1.048-2.702,2.893-4.258,5.535c-1.802,3.035-2.887,5.769-3.256,8.198
		c-0.014,0.106-0.021,0.205-0.021,0.296c0,0.38,0.137,0.569,0.41,0.569c0.464,0,1.016-0.356,1.657-1.07
		c1.528-1.654,3.167-3.735,4.913-6.239c1.788-2.597,2.934-4.556,3.44-5.877c0.367-0.973,0.606-1.654,0.715-2.05
		c0.178-0.684,0.368-1.025,0.573-1.025c0.204,0,0.683,0.313,1.433,0.935c0.315,0.258,0.484,0.493,0.513,0.706
		C574.437,487.364,574.376,487.683,574.224,488.139z"/>
	<path fill="#FFFFFF" stroke="#FFFFFF" d="M591.891,486.796c-1.814,3.749-3.174,8.152-4.074,13.209
		c0.383-0.744,0.848-1.692,1.393-2.847c0.069-0.213,0.178-0.319,0.328-0.319c0.204,0,0.308,0.145,0.308,0.433
		c0,0.092-0.021,0.19-0.063,0.296c-0.872,2.217-1.445,3.926-1.719,5.125c-0.164,0.759-0.382,1.139-0.655,1.139
		s-0.805-0.296-1.598-0.889c-0.423-0.334-0.566-0.926-0.429-1.776c0.573-3.31,1.262-6.187,2.066-8.631
		c-2.633,4.767-4.844,8.281-6.632,10.544c-0.396,0.502-0.825,0.752-1.291,0.752c-0.38,0-0.831-0.175-1.35-0.524
		c-0.942-0.182-1.412-0.729-1.412-1.64c0-0.167,0.014-0.349,0.041-0.547c0.341-4.342,1.05-7.947,2.129-10.817
		c-0.232,0.242-0.581,0.6-1.045,1.07c-0.177,0.166-0.313,0.213-0.41,0.137c-0.108-0.091-0.087-0.266,0.063-0.523
		c0.735-1.199,1.173-1.989,1.31-2.369c0.422-1.184,0.866-2.103,1.329-2.756c0.247-0.334,0.506-0.501,0.778-0.501
		c0.369,0,0.908,0.243,1.618,0.729c0.19,0.137,0.286,0.274,0.286,0.41l-0.45,0.751c-0.683,1.154-1.405,3.189-2.17,6.104
		c-0.833,3.158-1.257,5.731-1.27,7.721c0,0.653,0.124,0.979,0.368,0.979c0.218,0,0.574-0.28,1.065-0.844
		c1.051-1.244,2.572-3.598,4.564-7.059c1.762-3.053,2.826-5.041,3.193-5.968c0.615-1.549,1.113-2.459,1.494-2.733
		c0.246-0.182,0.465-0.272,0.656-0.272c0.189,0,0.559,0.159,1.104,0.478c0.547,0.318,0.819,0.555,0.819,0.707
		c0,0.045-0.048,0.105-0.143,0.182C592.001,486.621,591.932,486.705,591.891,486.796z"/>
	<path fill="#FFFFFF" stroke="#FFFFFF" d="M608.452,495.199c-0.819,1.382-1.884,3.386-3.194,6.012
		c-0.245,0.684-0.484,1.367-0.716,2.051c-0.191,0.47-0.442,0.706-0.757,0.706c-0.247,0-0.607-0.114-1.086-0.342
		c-0.532-0.243-0.798-0.485-0.798-0.729c0-0.107,0.089-0.342,0.266-0.707c0.888-2.003,1.68-4.501,2.375-7.492
		c0.75-3.143,1.07-5.542,0.962-7.197c-0.027-0.667-0.163-1.002-0.409-1.002c-0.177,0-0.443,0.189-0.798,0.569
		c-3.439,3.735-6.415,8.73-8.925,14.986c-0.315,0.773-0.684,1.161-1.106,1.161c-0.3,0-0.799-0.189-1.495-0.569
		c-0.272-0.137-0.416-0.266-0.43-0.387c0-0.061,0.076-0.273,0.226-0.638c0.792-1.929,1.576-4.373,2.354-7.334
		c0.832-3.203,1.303-5.702,1.413-7.492c0.026-0.547,0.013-0.821-0.042-0.821c-0.014,0-0.204,0.205-0.572,0.616
		c-0.369,0.409-0.882,0.941-1.537,1.594c-0.122,0.137-0.258,0.205-0.408,0.205c-0.19,0-0.287-0.084-0.287-0.251
		c0-0.121,0.069-0.258,0.205-0.41c0.587-0.835,1.358-1.874,2.313-3.119c0.205-0.258,0.415-0.389,0.635-0.389
		c0.327,0,0.614,0.267,0.859,0.798c1.105,0.365,1.624,0.927,1.556,1.687c-0.149,1.67-0.921,4.684-2.313,9.041
		c0.914-1.959,2.245-4.149,3.992-6.571c1.747-2.421,3.044-3.853,3.89-4.293c0.422-0.212,0.722-0.319,0.9-0.319
		c0.177,0,0.463,0.167,0.859,0.502c1.132,0.439,1.692,1.168,1.678,2.186c0,1.063-0.231,2.771-0.694,5.125
		c-0.37,1.943-0.71,3.454-1.024,4.532c0.396-0.562,0.901-1.29,1.516-2.187c0.108-0.151,0.218-0.227,0.326-0.227
		c0.204,0,0.308,0.144,0.308,0.432C608.493,495.018,608.479,495.108,608.452,495.199z"/>
	<path fill="#FFFFFF" stroke="#FFFFFF" d="M635.781,467.961c0.164,0.136,0.245,0.287,0.245,0.455c0,0.288-0.165,0.432-0.491,0.432
		c-0.125,0-0.253-0.037-0.39-0.112c-0.641-0.351-1.118-0.525-1.432-0.525c-0.847,0-1.781,0.927-2.806,2.779
		c-3.752,6.817-6.488,15.897-8.209,27.239c0.354-0.38,0.832-0.972,1.434-1.777c0.355-0.471,0.614-0.705,0.778-0.705
		c0.368,0,0.402,0.234,0.102,0.705c-1.311,2.02-2.176,4.198-2.6,6.537c-0.164,0.562-0.369,0.843-0.614,0.843
		c-0.122,0-0.272-0.068-0.45-0.205c-0.682-0.516-1.064-0.819-1.147-0.91c-0.271-0.289-0.408-0.677-0.408-1.163
		c0-0.258,0.034-0.562,0.103-0.91c0.587-3.508,1.07-6.119,1.453-7.835c-1.338,2.141-2.849,4.278-4.533,6.411
		c-1.685,2.134-2.911,3.48-3.676,4.043c-0.587,0.44-1.023,0.66-1.311,0.66c-0.245,0-0.621-0.22-1.125-0.66
		c-0.888-0.607-1.329-1.313-1.329-2.118c0-0.137,0.012-0.289,0.039-0.456c0.287-2.263,1.199-4.885,2.734-7.869
		c1.535-2.982,3.291-5.492,5.27-7.525c0.642-0.669,1.215-0.996,1.72-0.979c0.532,0.029,1.48,0.751,2.845,2.163
		c0.123,0.121,0.186,0.25,0.186,0.387c0,0.243-0.143,0.365-0.43,0.365c-0.096,0-0.199-0.023-0.309-0.069
		c-0.955-0.454-1.731-0.439-2.333,0.046c-1.282,1.063-2.695,2.907-4.237,5.535c-1.787,3.035-2.838,5.769-3.152,8.198
		c-0.068,0.577,0.068,0.865,0.409,0.865c0.449,0,1.004-0.356,1.657-1.07c1.515-1.654,3.147-3.735,4.894-6.239
		c1.788-2.597,2.935-4.556,3.438-5.877c0.288-0.729,0.512-1.427,0.676-2.096c1.42-5.587,3.004-10.362,4.75-14.324
		c1.364-3.099,2.565-5.178,3.602-6.241c0.383-0.41,0.751-0.615,1.105-0.615c0.383,0,0.874,0.251,1.476,0.752
		C634.396,466.715,635.085,467.338,635.781,467.961z"/>
	<path fill="#FFFFFF" stroke="#FFFFFF" d="M640.305,486.18c0,1.99-0.239,3.888-0.718,5.694c-0.148,0.547-0.354,0.819-0.614,0.819
		c-0.19,0-0.613-0.304-1.269-0.91c-0.327-0.304-0.407-0.736-0.246-1.298c0.382-1.382,0.573-2.49,0.573-3.326
		c0-0.288-0.053-0.433-0.163-0.433c-0.164,0-0.43,0.273-0.798,0.82c-2.838,4.114-4.96,8.73-6.366,13.848
		c-0.451,1.624-0.834,2.437-1.147,2.437c-0.122,0-0.661-0.267-1.616-0.797c-0.465-0.259-0.621-0.76-0.471-1.503
		c1.078-5.254,2.237-9.688,3.479-13.302c-1.009,1.185-1.65,1.997-1.923,2.438c-0.108,0.182-0.26,0.272-0.451,0.272
		c-0.23,0-0.348-0.113-0.348-0.342c0-0.136,0.055-0.287,0.164-0.454c0.669-0.896,1.563-2.263,2.682-4.1
		c0.342-0.669,0.682-1.002,1.023-1.002c0.245,0,0.744,0.213,1.494,0.638c0.424,0.242,0.491,0.569,0.204,0.979
		c-0.299,0.44-0.866,1.997-1.698,4.67c-0.792,2.596-1.337,4.631-1.639,6.103c1.856-4.6,3.966-8.661,6.327-12.185
		c0.45-0.668,0.812-1.002,1.084-1.002c0.245,0,0.58,0.183,1.004,0.547c0.572,0.076,0.935,0.175,1.084,0.296
		C640.189,485.27,640.305,485.633,640.305,486.18z"/>
	<path fill="#FFFFFF" stroke="#FFFFFF" d="M655.556,487.547c-1.897,9.732-3.679,17.013-5.344,21.842
		c-3.221,9.383-6.918,14.074-11.095,14.074c-2.442,0-5.07-1.48-7.882-4.44c-0.244-0.258-0.367-0.532-0.367-0.821
		c0-0.454,0.19-0.682,0.573-0.682c0.19,0,0.375,0.082,0.552,0.249c2.225,2.111,4.211,3.166,5.957,3.166
		c3.208,0,6.12-2.976,8.741-8.927c2.061-4.662,3.855-10.917,5.383-18.768c0.097-0.562,0.253-1.419,0.472-2.573
		c-1.433,2.597-3.036,5.155-4.811,7.675c-1.705,2.43-3.051,4.1-4.032,5.012c-0.546,0.5-0.984,0.751-1.311,0.751
		c-0.26,0-0.524-0.16-0.799-0.479c-0.286-0.41-0.58-0.813-0.879-1.207c-0.138-0.183-0.206-0.349-0.206-0.501
		c0-0.015,0-0.031,0-0.046c0.028-0.182,0.15-0.311,0.369-0.387c0.654-0.987,1.269-3.12,1.841-6.4
		c0.438-2.581,0.739-5.032,0.902-7.356c0.027-0.546-0.033-0.819-0.185-0.819c-0.041,0-0.361,0.273-0.961,0.819
		c-0.956,0.896-1.476,1.345-1.557,1.345c-0.191,0-0.286-0.107-0.286-0.319c0-0.106,0.04-0.213,0.122-0.318
		c0.232-0.32,0.751-1.116,1.556-2.392c0.724-1.14,1.208-1.709,1.453-1.709c0.19,0,0.45,0.092,0.778,0.274
		c0.696-0.122,1.084-0.183,1.167-0.183c0.464,0,0.695,0.396,0.695,1.185c0,1.32-0.341,3.905-1.023,7.754
		c-0.682,3.85-1.241,6.336-1.678,7.459c1.364-1.199,3.14-3.553,5.321-7.061c2.13-3.415,3.454-5.988,3.973-7.72
		c0.026-1.018,0.226-1.526,0.593-1.526c0.286,0,0.818,0.326,1.597,0.979C655.623,485.861,655.747,486.545,655.556,487.547z"/>
	<path fill="#FFFFFF" stroke="#FFFFFF" d="M690.5,473.449c-0.847,1.351-1.646,4.973-2.396,10.864
		c-0.655,5.207-0.963,9.269-0.922,12.184c0.054,2.915,0.484,4.374,1.289,4.374c0.15,0,0.367-0.062,0.646-0.184
		c0.28-0.121,0.493-0.182,0.643-0.182c0.274,0,0.41,0.114,0.41,0.342c0,0.167-0.102,0.349-0.307,0.547
		c-0.682,0.667-1.726,1.412-3.132,2.231c-0.341,0.198-0.635,0.296-0.88,0.296c-1.338,0-1.815-3.766-1.434-11.296
		c-3.274,0.213-6.366,0.509-9.272,0.889l-4.054,5.511c0.723-0.091,0.995-0.137,0.819-0.137c0.655,0,1.158,0.744,1.515,2.231
		c0.095,0.351,0.143,0.623,0.143,0.821c0,0.363-0.143,0.546-0.431,0.546c-0.135,0-0.337-0.038-0.602-0.113
		c-0.268-0.076-0.476-0.114-0.625-0.114c-1.161,0-2.724,0.69-4.689,2.072l-0.88,0.615c-0.108,0-0.313-0.114-0.614-0.342
		c-0.641-0.486-1.091-1.07-1.351-1.754c-0.164-0.471,0.075-0.941,0.718-1.412c0.846-0.606,2.004-1.632,3.479-3.074
		c1.475-1.443,2.437-2.482,2.887-3.12c-0.122-1.382-0.184-2.104-0.184-2.163c0.027-0.866,0.32-1.429,0.88-1.687
		c0.491-0.228,1.364-0.38,2.621-0.456c3.384-4.585,6.106-9.063,8.167-13.438c-0.668,0.396-1.87,0.904-3.604,1.526
		c-2.77,1.003-4.682,1.709-5.731,2.119c-1.488,0.591-2.23,1.624-2.23,3.097c0,0.304,0.026,0.638,0.081,1.002
		c0.083,0.563-0.048,0.843-0.39,0.843c-0.245,0-0.422-0.121-0.531-0.363c-0.75-1.747-1.195-2.977-1.33-3.69
		c-0.124-0.637-0.186-0.972-0.186-1.002c0-0.531,0.226-1.018,0.677-1.458c0.818-0.773,2.374-1.352,4.666-1.731
		c3.439-0.576,6.401-1.479,8.885-2.71c0.301-0.334,0.465-0.523,0.491-0.568c0.068-0.107,0.142-0.312,0.216-0.616
		c0.075-0.303,0.207-0.454,0.399-0.454c0.313,0,0.784,0.372,1.412,1.115c0.204,0.259,0.307,0.517,0.307,0.774
		c0,0.152-0.232,0.676-0.695,1.572c-1.01,1.988-2.36,4.395-4.055,7.219c-1.883,3.158-3.343,5.398-4.381,6.719
		c3.249,0,5.793-0.091,7.636-0.273c0.192-2.126,0.607-5.154,1.25-9.087c0.327-1.928,0.654-3.856,0.982-5.784
		c0.204-1.641,1.195-2.84,2.969-3.6c0.272-0.121,0.498-0.182,0.676-0.182c0.299,0,0.449,0.145,0.449,0.433
		C690.908,472.675,690.772,473.024,690.5,473.449z"/>
	<path fill="#FFFFFF" stroke="#FFFFFF" d="M707.694,489.278c-0.164,2.565-0.771,5.321-1.822,8.267
		c-0.982,2.748-1.951,4.624-2.906,5.625c-0.547,0.562-1.099,0.844-1.658,0.844c-0.628,0-1.672-0.563-3.133-1.686
		c-0.287-0.213-0.43-0.434-0.43-0.661c0-0.288,0.185-0.433,0.555-0.433c0.149,0,0.366,0.053,0.652,0.16
		c0.287,0.105,0.521,0.158,0.697,0.158c0.996,0,1.89-0.705,2.683-2.117c0.667-1.215,1.303-2.848,1.902-4.896
		c0.724-2.551,1.038-4.745,0.942-6.582c-0.041-0.881-0.308-1.321-0.798-1.321c-0.438,0-0.97,0.334-1.598,1.002
		c-4.421,4.707-7.532,10.333-9.335,16.877c-1.023,3.72-1.705,7.166-2.047,10.339c-0.014,0.107-0.198,2.741-0.552,7.903
		c-0.056,0.744-0.219,1.116-0.492,1.116c-0.286,0-0.799-0.372-1.534-1.116c-0.532-0.547-0.737-1.214-0.616-2.004
		c0.602-7.562,2.246-15.98,4.935-25.258c2.115-7.258,3.795-11.965,5.035-14.12c0.737-1.26,1.393-1.876,1.965-1.845
		c0.574,0.015,1.667,0.585,3.276,1.708c0.219,0.151,0.328,0.312,0.328,0.479c0,0.227-0.164,0.341-0.491,0.341
		c-0.083,0-0.22-0.019-0.411-0.057c-0.19-0.037-0.334-0.058-0.429-0.058c-0.859,0-1.753,0.813-2.683,2.438
		c-0.545,0.927-1.234,2.482-2.067,4.669c-0.832,2.187-1.433,3.985-1.801,5.397c2.007-3.644,4.341-6.771,7.001-9.383
		c0.41-0.395,0.778-0.593,1.105-0.593c0.15,0,0.525,0.229,1.126,0.684C706.949,485.884,707.816,487.258,707.694,489.278z"/>
	<path fill="#FFFFFF" stroke="#FFFFFF" d="M724.971,489.278c-0.163,2.565-0.771,5.321-1.82,8.267
		c-0.982,2.748-1.951,4.624-2.908,5.625c-0.545,0.562-1.099,0.844-1.656,0.844c-0.629,0-1.674-0.563-3.134-1.686
		c-0.286-0.213-0.429-0.434-0.429-0.661c0-0.288,0.184-0.433,0.552-0.433c0.151,0,0.368,0.053,0.655,0.16
		c0.287,0.105,0.518,0.158,0.696,0.158c0.996,0,1.89-0.705,2.681-2.117c0.669-1.215,1.305-2.848,1.904-4.896
		c0.724-2.551,1.037-4.745,0.941-6.582c-0.04-0.881-0.307-1.321-0.798-1.321c-0.437,0-0.969,0.334-1.598,1.002
		c-4.421,4.707-7.532,10.333-9.333,16.877c-1.024,3.72-1.707,7.166-2.047,10.339c-0.014,0.107-0.198,2.741-0.553,7.903
		c-0.056,0.744-0.22,1.116-0.493,1.116c-0.284,0-0.797-0.372-1.535-1.116c-0.532-0.547-0.736-1.214-0.612-2.004
		c0.6-7.562,2.244-15.98,4.933-25.258c2.115-7.258,3.794-11.965,5.035-14.12c0.738-1.26,1.392-1.876,1.966-1.845
		c0.573,0.015,1.664,0.585,3.275,1.708c0.219,0.151,0.327,0.312,0.327,0.479c0,0.227-0.163,0.341-0.491,0.341
		c-0.082,0-0.219-0.019-0.409-0.057c-0.19-0.037-0.335-0.058-0.431-0.058c-0.86,0-1.752,0.813-2.682,2.438
		c-0.545,0.927-1.234,2.482-2.067,4.669c-0.832,2.187-1.432,3.985-1.8,5.397c2.006-3.644,4.339-6.771,7-9.383
		c0.409-0.395,0.777-0.593,1.104-0.593c0.152,0,0.525,0.229,1.127,0.684C724.227,485.884,725.095,487.258,724.971,489.278z"/>
</g>
<path fill="none" stroke="#FFFFFF" stroke-miterlimit="10" d="M168.5,487.134c0,10.236-7.159,18.366-15.837,18.366H17.796
	c-8.678,0-16.296-8.13-16.296-18.366V320.314c0-10.235,7.619-18.814,16.296-18.814h134.867c8.678,0,15.837,8.579,15.837,18.814
	V487.134z"/>
<line fill="none" stroke="#FFFFFF" stroke-miterlimit="10" x1="1" y1="348.5" x2="168" y2="348.5"/>
<rect x="14.5" y="316.5" fill="none" stroke="#FFFFFF" stroke-miterlimit="10" width="65" height="21"/>
<rect x="14.5" y="379.5" fill="none" stroke="#FFFFFF" stroke-miterlimit="10" width="26" height="7"/>
<rect x="84.5" y="316.5" fill="none" stroke="#FFFFFF" stroke-miterlimit="10" width="23" height="7"/>
<rect x="87.5" y="332.5" fill="none" stroke="#FFFFFF" stroke-miterlimit="10" width="20" height="5"/>
<ellipse fill="none" stroke="#FFFFFF" stroke-miterlimit="10" cx="123.872" cy="328.251" rx="8.683" ry="8.854"/>
<ellipse fill="none" stroke="#FFFFFF" stroke-miterlimit="10" cx="146.884" cy="328.251" rx="9.117" ry="8.854"/>
<ellipse fill="none" stroke="#FFFFFF" stroke-miterlimit="10" cx="77.307" cy="427.407" rx="37.882" ry="47.808"/>
<rect x="131.5" y="475.5" fill="none" stroke="#FFFFFF" stroke-miterlimit="10" width="32" height="6"/>
</svg>
